<svg width="63" height="50" viewBox="0 0 63 50" fill="none" xmlns="http://www.w3.org/2000/svg">
<path fill-rule="evenodd" clip-rule="evenodd" d="M31.2 0C45.0071 0 56.2 11.1929 56.2 25C56.2 28.4231 55.512 31.6855 54.2668 34.6565L47.5135 26.5996C47.5707 26.0408 47.6 25.4738 47.6 24.9C47.6 15.7873 40.2127 8.4 31.1 8.4C21.9873 8.4 14.6 15.7873 14.6 24.9C14.6 34.0127 21.9873 41.4 31.1 41.4C37.9813 41.4 43.8786 37.1876 46.3542 31.2009L52.3404 38.3508C47.9099 45.3516 40.0978 50 31.2 50C17.3929 50 6.20001 38.8071 6.20001 25C6.20001 11.1929 17.3929 0 31.2 0Z" fill="#64FFDA"/>
<path fill-rule="evenodd" clip-rule="evenodd" d="M31.0656 12.8L31.0654 12.879L62.0656 49.8672L50.9359 49.9875L31.0324 26.21L24.1656 34.4162C21.6374 32.8358 19.6872 30.4168 18.7044 27.5487L30.9994 12.879L31 12.8L31.0324 12.839L31.0656 12.8ZM15.7797 31.0388C16.9006 33.8335 18.7641 36.2504 21.126 38.0453L11.1297 49.9875L0 49.8672L15.7797 31.0388Z" fill="#64FFDA"/>
</svg>
